<?xml version="1.0" encoding="UTF-8" standalone="no"?>
<!-- Created with Inkscape (http://www.inkscape.org/) -->

<svg
   version="1.1"
   id="svg1"
   width="182.13245"
   height="294.96841"
   viewBox="0 0 182.13245 294.96842"
   sodipodi:docname="mouse-event.svg"
   inkscape:version="1.4.2 (f4327f4, 2025-05-13)"
   xmlns:inkscape="http://www.inkscape.org/namespaces/inkscape"
   xmlns:sodipodi="http://sodipodi.sourceforge.net/DTD/sodipodi-0.dtd"
   xmlns="http://www.w3.org/2000/svg"
   xmlns:svg="http://www.w3.org/2000/svg">
  <defs
     id="defs1">
    <clipPath
       clipPathUnits="userSpaceOnUse"
       id="clipPath3">
      <path
         d="M 0,1.2207e-4 H 960 V 540.00012 H 0 Z"
         clip-rule="evenodd"
         id="path3" />
    </clipPath>
    <clipPath
       clipPathUnits="userSpaceOnUse"
       id="clipPath4">
      <path
         d="m 0.39675,0.36694 h 72 v 72 h -72 z"
         clip-rule="evenodd"
         id="path4" />
    </clipPath>
    <clipPath
       clipPathUnits="userSpaceOnUse"
       id="clipPath5">
      <path
         d="M 0,0 H 72.761 V 72.764 H 0 Z"
         transform="matrix(4.9340282,2.480472e-7,-4.9738867e-7,-4.9612211,466,541)"
         id="path5" />
    </clipPath>
    <clipPath
       clipPathUnits="userSpaceOnUse"
       id="clipPath6">
      <path
         d="m 0.39675,0.36694 h 72 v 72 h -72 z"
         clip-rule="evenodd"
         id="path6" />
    </clipPath>
    <clipPath
       clipPathUnits="userSpaceOnUse"
       id="clipPath7">
      <path
         d="M 0,0 H 72.761 V 72.764 H 0 Z"
         transform="matrix(4.9340282,2.480472e-7,-4.9738867e-7,-4.9612211,466,541)"
         id="path7" />
    </clipPath>
    <clipPath
       clipPathUnits="userSpaceOnUse"
       id="clipPath10">
      <path
         d="M 349.5,134.25 H 618.75 V 405 H 349.5 Z"
         transform="matrix(1.3333333,0,0,-1.3333333,0,720)"
         clip-rule="evenodd"
         id="path10" />
    </clipPath>
    <clipPath
       clipPathUnits="userSpaceOnUse"
       id="clipPath12">
      <path
         d="M 1.4305e-5,0 H 960.00001 V 540 H 1.4305e-5 Z"
         transform="matrix(-4.4000002e-8,-1,-1,4.4000002e-8,340.65003,513.92)"
         clip-rule="evenodd"
         id="path12" />
    </clipPath>
    <clipPath
       clipPathUnits="userSpaceOnUse"
       id="clipPath14">
      <path
         d="M 1.4305e-5,0 H 960.00001 V 540 H 1.4305e-5 Z"
         transform="matrix(-4.4000002e-8,-1,-1,4.4000002e-8,338.40003,441.12999)"
         clip-rule="evenodd"
         id="path14" />
    </clipPath>
  </defs>
  <sodipodi:namedview
     id="namedview1"
     pagecolor="#ffffff"
     bordercolor="#000000"
     borderopacity="0.25"
     inkscape:showpageshadow="2"
     inkscape:pageopacity="0.0"
     inkscape:pagecheckerboard="0"
     inkscape:deskcolor="#d1d1d1"
     inkscape:zoom="1.6208333"
     inkscape:cx="85.449871"
     inkscape:cy="144.67866"
     inkscape:window-width="3440"
     inkscape:window-height="1369"
     inkscape:window-x="-8"
     inkscape:window-y="-8"
     inkscape:window-maximized="1"
     inkscape:current-layer="g1">
    <inkscape:page
       x="0"
       y="0"
       inkscape:label="1"
       id="page1"
       width="182.13245"
       height="294.96841"
       margin="0"
       bleed="0" />
  </sodipodi:namedview>
  <g
     id="g1"
     inkscape:groupmode="layer"
     inkscape:label="1"
     transform="translate(-554.49243,-215.45956)">
    <g
       id="g3">
      <g
         id="g10"
         clip-path="url(#clipPath10)">
        <g
           clip-path="url(#clipPath5)"
           id="g8">
          <path
             d="m 54.727,25.92 c -0.508,4.032 -0.798,8.088 -0.869,12.15 0,3.312 0.15,6.435 0.371,9.225 0.751,9.325 -6.199,17.493 -15.523,18.244 -0.222,0.018 -0.444,0.031 -0.667,0.04 -0.536,0.03 -1.08,0.038 -1.642,0.038 -0.563,0 -1.11,-0.008 -1.65,-0.03 -9.347,-0.383 -16.613,-8.271 -16.23,-17.618 0.009,-0.222 0.022,-0.443 0.04,-0.665 0.219,-2.8 0.371,-5.917 0.371,-9.225 C 18.86,34.016 18.57,29.96 18.059,25.929 16.913,16.23 23.847,7.4379 33.546,6.2916 c 0.452,-0.0533 0.905,-0.0893 1.36,-0.1077 0.483,-0.015 0.981,-0.0217 1.487,-0.0217 0.506,0 0.997,0.0067 1.487,0.0217 9.757,0.3939 17.348,8.6231 16.954,18.3801 -0.018,0.453 -0.054,0.906 -0.107,1.356 z M 49.402,13.262 C 46.507,9.8514 42.305,7.8249 37.834,7.6832 37.358,7.6689 36.883,7.6622 36.392,7.6622 c -0.49,0 -0.975,0.0067 -1.436,0.021 -4.472,0.1402 -8.676,2.1663 -11.572,5.5768 -2.962,3.449 -4.352,7.976 -3.836,12.493 0.523,4.088 0.816,8.202 0.879,12.323 0,3.023 -0.126,6.166 -0.375,9.346 -0.686,8.498 5.647,15.943 14.145,16.629 0.204,0.017 0.408,0.029 0.612,0.037 0.463,0.019 0.982,0.029 1.588,0.029 0.643,0 1.125,-0.011 1.588,-0.037 8.518,-0.352 15.138,-7.543 14.785,-16.061 -0.008,-0.202 -0.02,-0.404 -0.037,-0.605 -0.249,-3.17 -0.375,-6.314 -0.375,-9.345 0.068,-4.121 0.361,-8.234 0.879,-12.322 0.517,-4.514 -0.873,-9.039 -3.835,-12.485 z"
             style="fill:#000000;fill-opacity:1;fill-rule:nonzero;stroke:none"
             transform="matrix(4.9340282,2.480472e-7,-4.9738867e-7,-4.9612211,466,541)"
             clip-path="url(#clipPath4)"
             id="path8" />
        </g>
        <g
           clip-path="url(#clipPath7)"
           id="g9">
          <path
             d="m 37.147,54.292 v 6.075 c 0,0.414 -0.336,0.75 -0.75,0.75 -0.414,0 -0.75,-0.336 -0.75,-0.75 v -6.075 c -1.745,-0.359 -2.998,-1.894 -3,-3.675 v -7.5 c 0.002,-1.781 1.255,-3.316 3,-3.675 V 27.367 c 0,-0.414 0.336,-0.75 0.75,-0.75 0.414,0 0.75,0.336 0.75,0.75 v 12.075 c 1.745,0.359 2.998,1.894 3,3.675 v 7.5 c -0.002,1.781 -1.255,3.316 -3,3.675 z m 1.5,-11.175 c 0,-1.243 -1.008,-2.25 -2.25,-2.25 -1.243,0 -2.25,1.007 -2.25,2.25 v 7.5 c 0,1.243 1.007,2.25 2.25,2.25 1.242,0 2.25,-1.007 2.25,-2.25 z"
             style="fill:#000000;fill-opacity:1;fill-rule:nonzero;stroke:none"
             transform="matrix(4.9340282,2.480472e-7,-4.9738867e-7,-4.9612211,466,541)"
             clip-path="url(#clipPath6)"
             id="path9" />
        </g>
      </g>
    </g>
    <g
       id="g11">
      <path
         id="path11"
         d="m 8.9302734,0.21101523 c -1.6171875,7e-8 -3.008789,-0.33105455 -4.171875,-0.99609356 C 3.6011718,-1.4559767 2.7105468,-2.3964064 2.0865233,-3.609297 1.4683592,-4.8192579 1.1607419,-6.2460157 1.1607418,-7.8866407 c 0,-1.640625 0.3076171,-3.0644533 0.9257811,-4.2773433 0.6240234,-1.21875 1.5146483,-2.15918 2.6718749,-2.824219 1.1630859,-0.670899 2.5546874,-1.007813 4.1718749,-1.007813 0.8115235,0 1.6083983,0.105469 2.3906253,0.316406 0.779297,0.210938 1.49414,0.539063 2.144531,0.984375 0.647461,0.439453 1.183594,0.996094 1.605469,1.675781 0.421875,0.679688 0.673828,1.485352 0.761719,2.414063 h -3.363282 c -0.06445,-0.515625 -0.243164,-0.972656 -0.539062,-1.371094 -0.298828,-0.398437 -0.703125,-0.708984 -1.21875,-0.9375 -0.515625,-0.225586 -1.1337892,-0.339844 -1.8515626,-0.339844 -1.03125,10e-7 -1.8691407,0.251954 -2.5078125,0.750001 -0.6328125,0.492187 -1.0957031,1.145507 -1.3828124,1.957031 -0.2900391,0.805664 -0.4335937,1.6933593 -0.4335937,2.6601562 10e-8,0.9609375 0.1435548,1.8515625 0.4335939,2.671875 0.2958985,0.8144531 0.7646485,1.4648437 1.4062501,1.9570311 0.647461,0.4921875 1.5,0.7382812 2.5546875,0.7382812 0.7792969,-10e-8 1.4443357,-0.131836 1.9921877,-0.3984376 0.553711,-0.272461 0.984375,-0.647461 1.289062,-1.1250001 0.310547,-0.4746094 0.492188,-1.0253906 0.539063,-1.6523437 l -3.7382816,1e-7 -10e-8,-2.6367187 7.0429687,-3e-7 v 1.6054687 c 0,1.3769531 -0.27832,2.5839844 -0.832031,3.6210938 -0.547851,1.0400391 -1.353515,1.8515626 -2.414062,2.43750011 -1.054688,0.58593755 -2.34961,0.87890635 -3.8789066,0.87890642 z M 22.031836,0.19929591 c -0.650391,2e-8 -1.253906,-0.12597651 -1.816406,-0.37499992 -0.5625,-0.24902342 -1.019532,-0.6240234 -1.371094,-1.12499999 -0.345703,-0.5068359 -0.515625,-1.1396484 -0.515625,-1.8984374 0,-1.0546875 0.316406,-1.8515625 0.949218,-2.3906251 0.632813,-0.5390625 1.517579,-0.9023438 2.660157,-1.0898438 1.139648,-0.1933595 2.463867,-0.3076173 3.972656,-0.339844 v -0.609375 c 0,-0.7412109 -0.181641,-1.2480468 -0.539063,-1.5234374 -0.351562,-0.272461 -0.808593,-0.4101563 -1.371093,-0.4101562 -0.626954,0 -1.136719,0.1494141 -1.535157,0.4453125 -0.398437,0.2900391 -0.597656,0.7617188 -0.597656,1.4179688 l -2.90625,1e-7 c 0,-0.9755859 0.210938,-1.7490234 0.632812,-2.3203125 0.427735,-0.568359 1.019532,-0.978516 1.769532,-1.230469 0.755859,-0.249023 1.634765,-0.375 2.636718,-0.375 0.726563,0 1.388672,0.06445 1.992188,0.1875 0.600586,0.117187 1.119141,0.325195 1.558594,0.621094 0.445312,0.298828 0.788086,0.703125 1.03125,1.2187496 0.240234,0.5097656 0.363281,1.1455078 0.363281,1.9101563 V 7.685138e-5 l -2.90625,1.27875e-7 L 25.945898,-1.4882043 c -0.486328,0.55664068 -1.048828,0.9785157 -1.6875,1.26562511 -0.641601,0.28125003 -1.382812,0.42187506 -2.226562,0.4218751 z m 1.019531,-2.13281251 c 0.591797,-1e-7 1.136719,-0.1523438 1.628906,-0.4570314 0.498047,-0.3046875 0.896485,-0.6503906 1.195313,-1.0429688 v -1.8515625 c -1.640625,0.00879 -2.794922,0.1640627 -3.457032,0.4687502 -0.65625,0.2988281 -0.984374,0.7822266 -0.984374,1.453125 0,0.4863282 0.146484,0.84375 0.445312,1.078125 0.304688,0.234375 0.694336,0.3515625 1.171875,0.3515625 z M 31.632422,7.6733173e-5 V -2.2499233 l 5.437499,-6.808594 -4.96875,3e-7 v -2.390625 h 8.636719 v 2.1679683 l -5.449218,6.8789065 5.824219,-2e-7 V 7.6316033e-5 Z M 48.211523,0.2110135 c -1.283203,6e-8 -2.355468,-0.23437489 -3.222656,-0.70312485 -0.867187,-0.47460934 -1.523437,-1.16015615 -1.96875,-2.05078115 -0.445312,-0.890625 -0.667969,-1.9599609 -0.667969,-3.2109375 0,-1.21875 0.213867,-2.2646484 0.644531,-3.140625 0.436524,-0.8730469 1.072266,-1.546875 1.910156,-2.015625 0.84375,-0.47461 1.88086,-0.714844 3.117188,-0.714844 1.702148,0 3.046875,0.500976 4.03125,1.5 0.990234,0.9931639 1.488281,2.4140623 1.488281,4.2656248 0,0.09375 -0.0059,0.2226562 -0.01172,0.3867187 -0.0088,0.1582031 -0.02051,0.2783203 -0.03516,0.3632813 l -8.039062,3e-7 c 0.01465,0.5390625 0.111328,1.0429688 0.292969,1.5117188 0.1875,0.46875 0.480469,0.8496093 0.878906,1.1367187 0.398438,0.28125 0.925781,0.4218749 1.582031,0.4218749 0.670899,0 1.209961,-0.1435547 1.617188,-0.4335938 0.404297,-0.2958985 0.612304,-0.7324219 0.621094,-1.3125 l 3.058593,-2e-7 c -0.04102,0.890625 -0.287109,1.6347657 -0.738281,2.2265626 -0.445312,0.59472654 -1.060547,1.04003906 -1.839844,1.33593753 -0.773437,0.28710941 -1.68164,0.43359383 -2.71875,0.43359387 z m -2.71875,-7.3007811 4.96875,-2e-7 c -0.02344,-0.796875 -0.263672,-1.3886719 -0.714844,-1.78125 -0.445312,-0.3984375 -1.019531,-0.5976562 -1.722656,-0.5976562 -0.726562,0 -1.321289,0.2050782 -1.78125,0.6093751 -0.454101,0.4072266 -0.703125,0.9960938 -0.75,1.7695313 z m 0,0"
         style="fill:#ff0000;fill-opacity:1;fill-rule:nonzero;stroke:none"
         aria-label="Ga&#10;z&#10;e"
         transform="matrix(-5.8666667e-8,1.3333333,-1.3333333,-5.8666667e-8,685.22667,265.8)"
         clip-path="url(#clipPath12)" />
    </g>
    <g
       id="g12">
      <path
         id="path13"
         d="m 1.8873047,0.00109367 -7e-7,-15.78515667 h 5.4023437 c 1.7021485,0 3.0498043,0.325195 4.0429693,0.972656 0.990234,0.641602 1.488281,1.628906 1.488281,2.964844 0,0.837891 -0.210938,1.546875 -0.632812,2.1328125 -0.416016,0.5800781 -0.969727,0.9960938 -1.664063,1.2539063 1.092774,0.2197265 1.924805,0.665039 2.496094,1.3359374 0.577148,0.6738281 0.867187,1.5058593 0.867187,2.4960937 10e-7,1.0546875 -0.243163,1.9277344 -0.726562,2.6132813 -0.477539,0.6796875 -1.166015,1.18945315 -2.0625,1.52343756 C 10.207617,-0.1629692 9.1353516,0.00109335 7.8873047,0.0010934 Z m 3.2929686,-2.73046887 2.5898438,-1e-7 c 0.515625,-10e-8 0.984375,-0.061523 1.40625,-0.1875001 0.421875,-0.131836 0.7529296,-0.3574219 0.9960939,-0.6796875 0.249023,-0.3281251 0.375,-0.7646485 0.375,-1.3125001 0,-0.703125 -0.263672,-1.2070312 -0.7851566,-1.5117187 C 9.2378903,-6.7254692 8.5728513,-6.8778129 7.7701169,-6.8778128 l -2.5898438,1e-7 z m -3e-7,-6.6679688 2.0625,-10e-8 c 0.6328125,0 1.163086,-0.1640625 1.59375,-0.4921875 0.4277344,-0.3281254 0.6445312,-0.8085934 0.6445312,-1.4414064 0,-0.445312 -0.099609,-0.796875 -0.2929688,-1.054687 -0.1962891,-0.263672 -0.4628907,-0.451172 -0.796875,-0.5625 -0.3369141,-0.117188 -0.7207032,-0.175782 -1.1484375,-0.175782 l -2.0625,1e-6 z m 15.764649,9.39843683 c -1.166016,5e-8 -2.0625,-0.13476554 -2.695313,-0.41015613 C 17.616797,-0.69031328 17.174414,-1.1180476 16.925391,-1.6981257 16.673437,-2.2840632 16.55039,-3.045782 16.55039,-3.983282 v -11.800781 h 3.09375 v 11.6132809 c 0,0.6035156 0.08203,1.0429687 0.246094,1.3242187 0.164063,0.28125 0.550782,0.421875 1.160157,0.421875 l 0.714843,-10e-8 v 2.42578129 z m 2.460937,-1.1e-7 V -11.448126 h 3.105469 V 0.00109258 Z M 24.964453,-12.948126 c -0.57129,0 -1.007813,-0.143555 -1.3125,-0.433594 -0.298829,-0.287109 -0.445313,-0.647461 -0.445313,-1.078125 0,-0.436523 0.146484,-0.796875 0.445312,-1.078125 0.304688,-0.287109 0.741211,-0.433594 1.3125,-0.433594 0.56836,0 1.001954,0.146485 1.300782,0.433594 0.304687,0.28125 0.457031,0.641602 0.457031,1.078125 0,0.430664 -0.152344,0.791016 -0.457031,1.078125 -0.298828,0.290039 -0.732422,0.433594 -1.300781,0.433594 z m 5.167969,12.94921842 -10e-7,-11.44921842 h 2.988282 l 0.05859,1.710937 c 0.38086,-0.492187 0.884766,-0.925781 1.511719,-1.300781 0.632813,-0.38086 1.447266,-0.574219 2.449219,-0.574219 1.163086,0 2.06543,0.357422 2.707031,1.066406 0.638672,0.703125 0.960938,1.734375 0.960938,3.09375 v 7.45312495 l -3.082031,1.4e-7 V -7.0535954 c 0,-0.4130859 -0.05859,-0.7763672 -0.175782,-1.0898438 -0.117187,-0.3105468 -0.304687,-0.5537109 -0.5625,-0.7265624 -0.251953,-0.1699219 -0.583008,-0.2578125 -0.996094,-0.2578125 -0.618164,0 -1.148437,0.1464844 -1.59375,0.4335938 -0.445312,0.2900391 -0.832031,0.6416016 -1.160156,1.0546876 l 10e-7,7.64062499 z m 13.526367,-5.9e-7 -10e-7,-15.78515583 3.105469,-10e-7 10e-7,9.6093754 4.476562,-5.2734374 h 3.375 l -4.523437,5.2617185 4.851562,6.18749983 -3.539062,1.6e-7 -4.640625,-6.04687479 v 6.04687499 z m 0,0"
         style="fill:#ff0000;fill-opacity:1;fill-rule:nonzero;stroke:none"
         aria-label="B&#10;l&#10;i&#10;n&#10;k"
         transform="matrix(-5.8666667e-8,1.3333333,-1.3333333,-5.8666667e-8,588.17333,268.8)"
         clip-path="url(#clipPath14)" />
    </g>
  </g>
</svg>
